/* XPM */
static char * ru_xpm[] = {
"15 15 59 1",
" 	c None",
".	c #FFFFFF",
"+	c #FBFBFB",
"@	c #FAFAFA",
"#	c #FEFEFE",
"$	c #FCFCFF",
"%	c #0000FF",
"&	c #1313FE",
"*	c #1F1FFF",
"=	c #0303FF",
"-	c #0909FE",
";	c #0202FF",
">	c #0505FE",
",	c #0808FF",
"'	c #0000FA",
")	c #8484D1",
"!	c #4B4BB3",
"~	c #6F6FF4",
"{	c #5959CF",
"]	c #1313FF",
"^	c #3333E2",
"/	c #5050F9",
"(	c #1100EE",
"_	c #1500EB",
":	c #1400E5",
"<	c #8F8ED9",
"[	c #4448F6",
"}	c #7D6CD5",
"|	c #635DB8",
"1	c #2714EE",
"2	c #4336CA",
"3	c #6054EA",
"4	c #1000EB",
"5	c #1400EB",
"6	c #1400EA",
"7	c #FA0005",
"8	c #F50004",
"9	c #C77F80",
"0	c #993435",
"a	c #FC3B3E",
"b	c #BA5D5E",
"c	c #FD1317",
"d	c #D53538",
"e	c #F45053",
"f	c #FA0000",
"g	c #FF0000",
"h	c #F90000",
"i	c #D75C5C",
"j	c #E30000",
"k	c #E06C6C",
"l	c #C41616",
"m	c #D87878",
"n	c #D97777",
"o	c #FB0A0A",
"p	c #FC0000",
"q	c #EE0000",
"r	c #FF0202",
"s	c #FF0303",
"t	c #FF0101",
"     .+@+#     ",
"   .........   ",
"  ...........  ",
" ............. ",
" $$$$$$$$$$$$$ ",
"%%%%%%%%%%%%%%%",
"%%%%%%%%%%%%%%%",
"%%%%&*=-;>,%%%%",
"%%%')!~{]^/%%%%",
"(__:<[}|1234_56",
" 77890abcdef77 ",
" gghijklmnoggg ",
"  ggpgpgqpggg  ",
"   ggggggggg   ",
"     grsrt     "};
