/* XPM */
static char * uk_xpm[] = {
"15 15 162 2",
"  	c None",
". 	c #312781",
"+ 	c #372E89",
"@ 	c #342E86",
"# 	c #C4D0DD",
"$ 	c #D44147",
"% 	c #D62B31",
"& 	c #D62A30",
"* 	c #C8CED9",
"= 	c #484391",
"- 	c #372D89",
"; 	c #2F2580",
"> 	c #2D287E",
", 	c #4B3D96",
"' 	c #524399",
") 	c #4E4397",
"! 	c #E0E7EF",
"~ 	c #F05656",
"{ 	c #F24141",
"] 	c #F13F3F",
"^ 	c #E3E4EB",
"/ 	c #6159A2",
"( 	c #514399",
"_ 	c #4B3C96",
": 	c #27247D",
"< 	c #D4D8E0",
"[ 	c #9390BC",
"} 	c #504799",
"| 	c #463B92",
"1 	c #DFE7EF",
"2 	c #EF4F4F",
"3 	c #F23737",
"4 	c #F23435",
"5 	c #E3E5EB",
"6 	c #59529E",
"7 	c #4E4699",
"8 	c #897DAE",
"9 	c #CDA6AF",
"0 	c #D7A6AC",
"a 	c #FDF5F1",
"b 	c #E4E3EB",
"c 	c #9C99C3",
"d 	c #E8F0F6",
"e 	c #F35353",
"f 	c #F53B3B",
"g 	c #F53839",
"h 	c #EAECF0",
"i 	c #A692B5",
"j 	c #DC8B94",
"k 	c #FC6B66",
"l 	c #D74E53",
"m 	c #D9BABF",
"n 	c #F6EBEB",
"o 	c #F8FEFE",
"p 	c #F7FCFD",
"q 	c #F6FFFF",
"r 	c #F56262",
"s 	c #F74B4B",
"t 	c #F64848",
"u 	c #F5FBFB",
"v 	c #F5E1E1",
"w 	c #F6CFCE",
"x 	c #F6D6D5",
"y 	c #DADCE2",
"z 	c #D9898E",
"A 	c #F69898",
"B 	c #F59797",
"C 	c #F59A9A",
"D 	c #F66969",
"E 	c #F76262",
"F 	c #F66162",
"G 	c #F59897",
"H 	c #F59899",
"I 	c #F59898",
"J 	c #DA878C",
"K 	c #DB6A6F",
"L 	c #F56666",
"M 	c #F25353",
"N 	c #F14949",
"O 	c #F14141",
"P 	c #F04141",
"Q 	c #F03F3F",
"R 	c #F04242",
"S 	c #F14343",
"T 	c #F24B4B",
"U 	c #F35757",
"V 	c #F56A6A",
"W 	c #DB6C72",
"X 	c #D00F15",
"Y 	c #E60606",
"Z 	c #E50202",
"` 	c #E40000",
" .	c #E30000",
"..	c #E40505",
"+.	c #E40606",
"@.	c #E40707",
"#.	c #E50000",
"$.	c #E50303",
"%.	c #E60807",
"&.	c #D01419",
"*.	c #C8A9AF",
"=.	c #D9ABAC",
"-.	c #D9A5A6",
";.	c #D9A7A8",
">.	c #D9B9BA",
",.	c #D81616",
"'.	c #DB0000",
").	c #DA0000",
"!.	c #D8B6B6",
"~.	c #DAB1B2",
"{.	c #D9B0B1",
"].	c #D9ADAE",
"^.	c #C89BA2",
"/.	c #C28D93",
"(.	c #CD4444",
"_.	c #D35855",
":.	c #BE8F95",
"<.	c #CBD7D9",
"[.	c #CE1818",
"}.	c #D00000",
"|.	c #CF0000",
"1.	c #CBD2D4",
"2.	c #BBBEC8",
"3.	c #D7DBD8",
"4.	c #D0C6C6",
"5.	c #C18085",
"6.	c #C01A1D",
"7.	c #C97874",
"8.	c #716189",
"9.	c #1C1464",
"0.	c #B3BCC5",
"a.	c #C31616",
"b.	c #C50000",
"c.	c #B6B8BF",
"d.	c #28236E",
"e.	c #595589",
"f.	c #C0C0C2",
"g.	c #C6C6C8",
"h.	c #76789F",
"i.	c #181366",
"j.	c #070057",
"k.	c #0C005A",
"l.	c #A9B1BB",
"m.	c #BA1615",
"n.	c #BC0000",
"o.	c #BB0000",
"p.	c #ACAFB6",
"q.	c #1E1565",
"r.	c #0A005A",
"s.	c #0D035B",
"t.	c #5F5F8E",
"u.	c #0E0462",
"v.	c #100665",
"w.	c #0D0763",
"x.	c #A4B0BE",
"y.	c #B41B20",
"z.	c #B50309",
"A.	c #B50308",
"B.	c #A7ADBA",
"C.	c #1E196B",
"D.	c #100564",
"E.	c #0F0462",
"                              ",
"    . + @ # $ % & * = - ;     ",
"  > , ' ) ! ~ { ] ^ / ( _ :   ",
"  < [ } | 1 2 3 4 5 6 7 8 9   ",
"  0 a b c d e f g h i j k l   ",
"  m n o p q r s t u v w x y   ",
"  z A B B C D E F G H I A J   ",
"  K L M N O P Q R S T U V W   ",
"  X Y Z `  ...+.@.` #.$.%.&.  ",
"  *.=.-.;.>.,.'.).!.~.{.].^.  ",
"  /.(._.:.<.[.}.|.1.2.3.4.5.  ",
"  6.7.8.9.0.a.b.b.c.d.e.f.g.  ",
"  h.i.j.k.l.m.n.o.p.q.r.s.t.  ",
"    u.v.w.x.y.z.A.B.C.D.E.    ",
"                              "};
